<svg version="1.1" width="151.277" height="154.194" xmlns="http://www.w3.org/2000/svg" xmlns:xlink="http://www.w3.org/1999/xlink" id="svg8689" overflow="hidden"><defs id="defs8693"></defs><path d=" M 17.2049 1.09362 C 7.67462 1.09362 0 8.76817 0 18.2985 L 0 134.071 C 0 143.602 7.67462 151.276 17.2049 151.276 L 78.3659 151.276 C 87.8962 151.276 95.5707 143.602 95.5707 134.071 L 95.5707 110.317 L 40.9589 110.317 L 40.9589 1.09362 Z" id="rect6940-0-8" stroke-width="2.73059" fill="#FF0000" fill-rule="evenodd"/><path d=" M 133.612 154.194 C 143.397 154.194 151.277 146.314 151.277 136.529 L 151.277 17.6644 C 151.277 7.87951 143.397 0 133.612 0 L 70.8176 0 C 61.0328 0 53.1532 7.87951 53.1532 17.6644 L 53.1532 42.0529 L 109.224 42.0529 L 109.224 154.194 Z" id="rect6940-0-3-5" stroke-width="2.73059" fill="#FF0000" fill-rule="evenodd"/><rect x="21.8448" y="1.09414" width="5.74751" height="122.877" id="rect6998-2" stroke-width="2.73059" fill="#FFFFFF" fill-rule="evenodd"/><rect x="24.5754" y="120.953" width="70.9954" height="3.01691" id="rect6998-1-0" stroke-width="2.57251" fill="#FFFFFF" fill-rule="evenodd"/><circle cx="74.4415" cy="80.2805" r="13.653" id="path7550-7-7" stroke="#550000" stroke-width="1.8213" stroke-linejoin="round" stroke-dasharray="0 20.0343" fill="#FF0000"/></svg>